<svg width="12" height="13" viewBox="0 0 12 13" fill="none" xmlns="http://www.w3.org/2000/svg">
<path fill-rule="evenodd" clip-rule="evenodd" d="M6 7.35831C6.48324 7.35831 6.96175 7.26313 7.4082 7.0782C7.85466 6.89327 8.26032 6.62222 8.60202 6.28051C8.94372 5.93881 9.21477 5.53315 9.3997 5.0867C9.58463 4.64024 9.67981 4.16173 9.67981 3.6785V3.63986C8.67043 3.61355 7.70356 3.22798 6.95307 2.55247C6.17292 3.25476 5.1601 3.64284 4.11042 3.6417C3.50099 3.64246 2.89856 3.51194 2.34411 3.259C2.28498 3.77426 2.33545 4.2962 2.49219 4.7906C2.64893 5.28499 2.90841 5.74066 3.25362 6.12774C3.59882 6.51481 4.02195 6.82454 4.49526 7.03662C4.96856 7.24869 5.48135 7.35832 6 7.35831ZM7.29713 1.59664C7.87351 2.24914 8.68267 2.64976 9.55102 2.71254C9.34715 1.96534 8.91282 1.30147 8.30983 0.815377C7.70685 0.329285 6.96593 0.0457379 6.19248 0.00507839C5.41903 -0.0355811 4.65246 0.168718 4.00183 0.588909C3.35121 1.0091 2.84967 1.62378 2.56858 2.34548C3.02947 2.58559 3.55293 2.72174 4.1095 2.72174C4.58213 2.72248 5.0495 2.62252 5.48049 2.42852C5.91147 2.23452 6.29618 1.95094 6.60901 1.59664C6.65217 1.548 6.70514 1.50907 6.76445 1.4824C6.82376 1.45574 6.88805 1.44195 6.95307 1.44195C7.0181 1.44195 7.08238 1.45574 7.14169 1.4824C7.201 1.50907 7.25398 1.548 7.29713 1.59664ZM0.0313457 12.2957C0.51341 11.1079 1.33889 10.091 2.40216 9.37504C3.46543 8.65908 4.71814 8.27662 6 8.27662C7.28186 8.27662 8.53456 8.65908 9.59784 9.37504C10.6611 10.091 11.4866 11.1079 11.9687 12.2957C12.0846 12.5809 11.8638 12.878 11.5565 12.878H0.443485C0.13622 12.878 -0.0845683 12.5809 0.0313457 12.2957Z" fill="white"/>
</svg>
